<svg width="17" height="17" viewBox="0 0 17 17" fill="none" xmlns="http://www.w3.org/2000/svg">
<g clip-path="url(#clip0_82_474)">
<path d="M14.875 7.08301C14.875 12.0413 8.5 16.2913 8.5 16.2913C8.5 16.2913 2.125 12.0413 2.125 7.08301C2.125 5.39225 2.79665 3.77075 3.99219 2.5752C5.18774 1.37966 6.80924 0.708008 8.5 0.708008C10.1908 0.708008 11.8123 1.37966 13.0078 2.5752C14.2033 3.77075 14.875 5.39225 14.875 7.08301Z" stroke="#6CAC3D" stroke-width="2" stroke-linecap="round" stroke-linejoin="round"/>
<path d="M8.5 9.20801C9.6736 9.20801 10.625 8.25661 10.625 7.08301C10.625 5.9094 9.6736 4.95801 8.5 4.95801C7.32639 4.95801 6.375 5.9094 6.375 7.08301C6.375 8.25661 7.32639 9.20801 8.5 9.20801Z" stroke="#6CAC3D" stroke-width="2" stroke-linecap="round" stroke-linejoin="round"/>
</g>
<defs>
<clipPath id="clip0_82_474">
<rect width="17" height="17" fill="white"/>
</clipPath>
</defs>
</svg>
