<svg width="17" height="17" viewBox="0 0 17 17" fill="none" xmlns="http://www.w3.org/2000/svg">
<g clip-path="url(#clip0_82_500)">
<path d="M8.5 0.708008V16.2913" stroke="#6CAC3D" stroke-width="2" stroke-linecap="round" stroke-linejoin="round"/>
<path d="M12.0417 3.54199H6.72917C6.07165 3.54199 5.44107 3.80319 4.97613 4.26812C4.5112 4.73306 4.25 5.36364 4.25 6.02116C4.25 6.67868 4.5112 7.30926 4.97613 7.77419C5.44107 8.23913 6.07165 8.50033 6.72917 8.50033H10.2708C10.9283 8.50033 11.5589 8.76152 12.0239 9.22646C12.4888 9.69139 12.75 10.322 12.75 10.9795C12.75 11.637 12.4888 12.2676 12.0239 12.7325C11.5589 13.1975 10.9283 13.4587 10.2708 13.4587H4.25" stroke="#6CAC3D" stroke-width="2" stroke-linecap="round" stroke-linejoin="round"/>
</g>
<defs>
<clipPath id="clip0_82_500">
<rect width="17" height="17" fill="white"/>
</clipPath>
</defs>
</svg>
