<svg width="26" height="27" viewBox="0 0 26 27" fill="none" xmlns="http://www.w3.org/2000/svg">
<path d="M13.302 26.1783C20.3042 26.1783 26.0006 20.482 26.0006 13.4798C26.0006 6.4776 20.3042 0.78125 13.302 0.78125C6.29986 0.78125 0.603516 6.4776 0.603516 13.4798C0.603516 20.482 6.29986 26.1783 13.302 26.1783ZM13.302 2.36857C19.4291 2.36857 24.4133 7.35274 24.4133 13.4798C24.4133 19.6068 19.4291 24.591 13.302 24.591C7.175 24.591 2.19083 19.6068 2.19083 13.4798C2.19083 7.35274 7.175 2.36857 13.302 2.36857Z" fill="#2B6BA0"/>
<path d="M8.95979 15.7615L10.6191 15.0408L10.1534 15.5075C10.0042 15.6567 9.92064 15.8588 9.92064 16.0684V19.1742C9.92064 19.8853 10.7799 20.2303 11.2751 19.7351L12.9408 18.0694L16.5704 19.8843C17.0403 20.1192 17.6085 19.8409 17.7059 19.316L19.7768 7.92859C19.8858 7.31589 19.2826 6.82065 18.7059 7.0471L5.2497 12.3138C4.64652 12.5487 4.5661 13.3741 5.11213 13.7223L8.21692 15.7033C8.43915 15.8451 8.71957 15.8673 8.95979 15.7615ZM17.9609 9.04501L16.3345 17.9922L13.1387 16.3953C12.8297 16.2408 12.4614 16.3054 12.2233 16.5445L11.508 17.2599V16.3996L14.69 13.2175C15.3069 12.6006 14.6127 11.5826 13.8127 11.9286L8.71534 14.1403L7.28252 13.226L17.9609 9.04501Z" fill="#2B6BA0"/>
</svg>
