<svg width="25" height="28" viewBox="0 0 25 28" fill="none" xmlns="http://www.w3.org/2000/svg">
<path d="M12.1676 0.739847C11.3768 0.744379 10.5839 0.791957 9.78411 0.889379C8.25482 1.07743 6.73911 1.39008 5.28458 2.05844C2.97138 3.12102 1.33107 4.92446 0.855284 7.54578C0.653644 8.65141 0.490519 9.77289 0.397628 10.9012C0.218644 13.092 0.329659 15.2897 0.950441 17.4488C1.43982 19.1503 2.34153 20.6796 3.92068 21.672C4.58904 22.0911 5.47036 22.295 5.93029 22.508C6.05943 22.5691 6.09115 22.6054 6.09794 22.6145C6.10474 22.6213 6.12286 22.6371 6.1206 22.773C6.10474 24.1596 6.1206 26.8421 6.1206 26.8421L6.12286 27.4198H7.15825L7.32591 27.2567C7.32591 27.2567 9.9563 24.726 10.9079 23.6838C11.0801 23.498 11.1684 23.3938 11.1865 23.3825C11.2024 23.3712 11.1752 23.3644 11.3519 23.3598C12.6003 23.3349 13.8464 23.2873 15.0925 23.2194C16.7351 23.1287 18.4093 22.9724 20.0202 22.2995C21.4226 21.7127 22.594 20.7544 23.3031 19.318C24.0281 17.8453 24.4155 16.2843 24.5605 14.6689C24.8007 11.9796 24.7169 9.28578 23.9737 6.63047C23.5365 5.07399 22.6574 3.75766 21.3093 2.82875C19.6962 1.7186 17.8769 1.30172 16.0961 1.03664C15.0562 0.882582 14.0095 0.780629 12.9583 0.74891C12.6954 0.742113 12.4326 0.737582 12.1676 0.739847ZM12.9265 1.90891C13.9257 1.9361 14.9248 2.03352 15.9262 2.18305C17.6436 2.43907 19.2635 2.82875 20.6523 3.78485C21.7783 4.55969 22.4807 5.60641 22.8568 6.94086C23.5501 9.42399 23.6384 11.9683 23.4051 14.567C23.2714 16.0645 22.9157 17.476 22.2609 18.8059C21.6832 19.9795 20.7815 20.7249 19.5716 21.2302C18.1669 21.817 16.6399 21.9733 15.0313 22.0616C13.7988 22.1296 12.564 22.1749 11.3293 22.1998C11.0189 22.2066 10.7153 22.2882 10.5001 22.4468C10.2848 22.6054 10.1874 22.7527 10.0537 22.8977C9.37404 23.6408 8.01919 24.948 7.2806 25.664C7.27607 24.7985 7.26927 23.7518 7.2806 22.7866C7.28513 22.4898 7.21716 22.1862 7.04724 21.9461C6.87732 21.7059 6.64396 21.5609 6.41966 21.4567C5.76489 21.1531 4.90849 20.922 4.53693 20.6887C3.23872 19.873 2.50239 18.6496 2.06513 17.1271C1.49192 15.1356 1.38317 13.0852 1.5531 10.9986C1.64372 9.91563 1.80005 8.83039 1.99716 7.75422C2.4095 5.48633 3.70544 4.05899 5.76716 3.11196C7.0699 2.51383 8.46099 2.2193 9.92685 2.04032C10.926 1.91797 11.9251 1.87946 12.9265 1.90891ZM13.1712 4.79985C12.6932 4.79985 12.2287 4.85422 11.7779 4.95391C11.4675 5.02641 11.2704 5.3368 11.3406 5.64946C11.4108 5.96211 11.7235 6.15696 12.0361 6.08672C12.4009 6.00289 12.7815 5.95985 13.1712 5.95985C16.0033 5.95985 18.287 8.2436 18.287 11.0734C18.287 11.4653 18.244 11.8459 18.1601 12.213C18.0899 12.5234 18.2847 12.836 18.5974 12.9063C18.9101 12.9765 19.2204 12.7794 19.2907 12.4667C19.3926 12.0181 19.447 11.5537 19.447 11.0734C19.447 7.61602 16.6308 4.79985 13.1712 4.79985ZM7.38482 5.96211C7.28966 5.95758 7.19224 5.96438 7.09029 5.98703C6.03677 6.22039 4.99005 6.98391 4.9606 8.34781C4.99005 8.53813 4.98779 8.74203 5.05802 8.91422C5.40239 9.75703 5.70146 10.627 6.13193 11.4245C8.22763 15.2988 11.3972 17.9926 15.4368 19.7031C15.9194 19.907 16.4179 19.9501 16.905 19.7462C17.5756 19.4675 18.1443 19.037 18.5226 18.4185C19.0415 17.5689 19.0483 16.9798 18.1941 16.3523C17.6345 15.9399 17.084 15.5163 16.5176 15.113C15.6544 14.5013 14.7209 14.3948 14.0775 15.4687C14.0435 15.523 13.9936 15.5684 13.9506 15.6137C13.6198 15.9648 13.2143 16.0509 12.7838 15.8742C11.1503 15.2013 9.88833 14.1161 9.12708 12.5007C8.67849 11.5514 8.80083 11.0756 9.63911 10.4435C9.72294 10.3823 9.80224 10.3166 9.87927 10.2464C10.2463 9.9111 10.3437 9.51235 10.1262 9.06149C9.63458 8.03289 8.97982 7.11531 8.1506 6.32461C7.9263 6.11164 7.67029 5.97797 7.38482 5.96211ZM13.1622 6.53985C12.9061 6.53985 12.6524 6.56024 12.4032 6.60328C12.1925 6.63047 12.0135 6.77094 11.9365 6.96805C11.8594 7.16742 11.8979 7.39172 12.0339 7.55485C12.1721 7.71571 12.3896 7.79047 12.598 7.74516C12.7793 7.71571 12.9696 7.69985 13.1622 7.69985C15.0472 7.69985 16.5606 9.21328 16.5606 11.0983C16.5606 11.2909 16.5447 11.4812 16.5153 11.6624C16.47 11.8709 16.5447 12.0884 16.7056 12.2266C16.8687 12.3625 17.093 12.401 17.2924 12.324C17.4895 12.247 17.63 12.068 17.6572 11.8573C17.7002 11.608 17.7206 11.3543 17.7206 11.0983C17.7206 8.58797 15.6725 6.53985 13.1622 6.53985ZM13.0806 8.27985C12.8722 8.27758 12.6773 8.38633 12.5708 8.56758C12.4666 8.74883 12.4666 8.97086 12.5708 9.15211C12.6773 9.33336 12.8722 9.44211 13.0806 9.43985C14.048 9.43985 14.8206 10.2124 14.8206 11.1798C14.8183 11.3883 14.9271 11.5831 15.1083 11.6896C15.2896 11.7938 15.5116 11.7938 15.6929 11.6896C15.8741 11.5831 15.9829 11.3883 15.9806 11.1798C15.9806 9.58485 14.6756 8.27985 13.0806 8.27985Z" fill="#5C4CBB"/>
</svg>
